<svg xmlns="http://www.w3.org/2000/svg" viewBox="0 0 240 240" role="img" aria-labelledby="title desc">
  <title id="title">D.G.M Technician logo</title>
  <desc id="desc">Shield and house emblem with DGM initials in blue and gold.</desc>
  <defs>
    <linearGradient id="shield" x1="0%" y1="0%" x2="100%" y2="100%">
      <stop offset="0%" stop-color="#51c4d3"/>
      <stop offset="100%" stop-color="#173a5f"/>
    </linearGradient>
    <linearGradient id="accent" x1="0%" y1="0%" x2="100%" y2="100%">
      <stop offset="0%" stop-color="#f2c06c"/>
      <stop offset="100%" stop-color="#d48f31"/>
    </linearGradient>
  </defs>
  <rect width="240" height="240" rx="52" fill="#08111f"/>
  <path d="M120 26 46 58v54c0 49 28 81 74 101 46-20 74-52 74-101V58l-74-32Z" fill="url(#shield)"/>
  <path d="M72 104 120 67l48 37v47c0 8-6 14-14 14h-20v-32h-28v32H86c-8 0-14-6-14-14v-47Z" fill="#f4f8fb"/>
  <path d="M83 96h74" stroke="url(#accent)" stroke-width="10" stroke-linecap="round"/>
  <path d="M86 172h68" stroke="url(#accent)" stroke-width="8" stroke-linecap="round" opacity=".9"/>
  <text x="120" y="214" text-anchor="middle" font-family="Arial, Helvetica, sans-serif" font-size="36" font-weight="700" fill="#f2c06c">DGM</text>
</svg>
